<svg xmlns="http://www.w3.org/2000/svg" viewBox="0 0 96 96" role="img" aria-labelledby="title desc">
  <title id="title">نشان اگزوتیک با مهدیار</title>
  <desc id="desc">نشان دایره‌ای با نیم‌رخ طلایی ایگوانا</desc>
  <defs>
    <radialGradient id="field" cx="36%" cy="28%" r="78%">
      <stop offset="0" stop-color="#34401d"/>
      <stop offset="1" stop-color="#171d0f"/>
    </radialGradient>
    <linearGradient id="gold" x1="18" y1="18" x2="78" y2="78" gradientUnits="userSpaceOnUse">
      <stop stop-color="#f2d899"/>
      <stop offset=".48" stop-color="#d2a958"/>
      <stop offset="1" stop-color="#a96e21"/>
    </linearGradient>
    <linearGradient id="iguana" x1="24" y1="27" x2="78" y2="67" gradientUnits="userSpaceOnUse">
      <stop stop-color="#d9d96b"/>
      <stop offset=".52" stop-color="#9caf3f"/>
      <stop offset="1" stop-color="#668326"/>
    </linearGradient>
    <filter id="softShadow" x="-20%" y="-20%" width="140%" height="140%">
      <feDropShadow dx="0" dy="2" stdDeviation="2.5" flood-color="#060900" flood-opacity=".45"/>
    </filter>
  </defs>

  <circle cx="48" cy="48" r="45" fill="url(#field)" stroke="url(#gold)" stroke-width="2"/>
  <circle cx="48" cy="48" r="39.5" fill="none" stroke="#e4bf72" stroke-opacity=".22"/>
  <path d="M17 51A31 31 0 0 1 22 35" fill="none" stroke="#e4bf72" stroke-width="1.6" stroke-linecap="round"/>
  <path d="M79 61a31 31 0 0 1-10 12" fill="none" stroke="#e4bf72" stroke-width="1.6" stroke-linecap="round"/>
  <circle cx="18" cy="56" r="1.5" fill="#d2a958"/>
  <circle cx="76" cy="68" r="1.5" fill="#d2a958"/>

  <g filter="url(#softShadow)">
    <path d="M19 62c-1.2-9.7 2-19.2 9.2-26.2 4.7-4.6 10.4-7.7 16.7-9.4l-3.3-9.2 9.1 7.2 3.8-11 6.2 12.1 8.6-7-1.1 12.7c8.7 2.4 14.6 7.2 16.2 13.2.8 3-1.6 6.1-6.1 8.3-3.3 1.6-7 2.2-10.7 2-3.7 8.8-11.5 14.9-21.6 17.2-11.4 2.7-22.2-.8-27-9.9Z" fill="url(#iguana)" stroke="#e2bd6d" stroke-width="1.35" stroke-linejoin="round"/>

    <path d="M67.6 54.7c-3.7 8.8-11.5 14.9-21.6 17.2-7.5 1.8-14.8.9-20.2-2.2 7.9-.5 14.3-3.5 19.3-9.1 5.4-6.1 13-8.1 22.5-5.9Z" fill="#55721f" opacity=".62"/>
    <path d="M61.5 33.2c4.5-.1 8.1 3.2 8.2 7.6.1 4.3-3.3 7.8-7.7 7.9-4.4.1-8-3.2-8.1-7.5-.1-4.3 3.3-7.8 7.6-8Z" fill="#19200f" stroke="#e6c577" stroke-width="1.5"/>
    <circle cx="62" cy="40.8" r="3.35" fill="url(#gold)"/>
    <ellipse cx="63" cy="40.6" rx="1.1" ry="2.3" fill="#11170b"/>
    <circle cx="64" cy="39.3" r=".7" fill="#fff6d9"/>
    <circle cx="77.2" cy="43.9" r="1.45" fill="#263215"/>
    <path d="M61.5 51.1c7.2 2.5 14.4 1.6 20.4-2.4" fill="none" stroke="#2b3817" stroke-width="2" stroke-linecap="round"/>
    <path d="M69.7 54.8c3.3.3 6.3-.1 9-1.3" fill="none" stroke="#e1bd6e" stroke-opacity=".62" stroke-width=".9" stroke-linecap="round"/>

    <g fill="#d9bd67" opacity=".55">
      <circle cx="38" cy="38" r="2.2"/><circle cx="33" cy="43" r="1.45"/><circle cx="42.5" cy="45" r="1.7"/>
      <circle cx="30" cy="51" r="2"/><circle cx="38" cy="53" r="1.25"/><circle cx="46" cy="35" r="1.2"/>
    </g>
  </g>

  <path d="M31 73c5.8-4.2 10-8.4 12.6-12.7" fill="none" stroke="#d7b263" stroke-width="1.35" stroke-linecap="round"/>
  <path d="M34.2 69.9c-4.2-.1-7.1 1.6-8.6 4.8 3.6.7 6.5-.9 8.6-4.8ZM38.2 65.6c-.2-3.6 1.1-6.2 4-7.8.9 3.2-.5 5.8-4 7.8Z" fill="#d7b263"/>
</svg>
