<svg xmlns="http://www.w3.org/2000/svg" viewBox="0 0 96 96">
  <defs>
    <radialGradient id="field" cx="38%" cy="30%" r="80%">
      <stop offset="0" stop-color="#333f1c"/><stop offset="1" stop-color="#151a0d"/>
    </radialGradient>
    <linearGradient id="gold" x1="20" y1="16" x2="76" y2="82" gradientUnits="userSpaceOnUse">
      <stop stop-color="#f6e0a5"/><stop offset=".55" stop-color="#cda454"/><stop offset="1" stop-color="#96702a"/>
    </linearGradient>
  </defs>
  <circle cx="48" cy="48" r="45" fill="url(#field)"/>
  <circle cx="48" cy="48" r="45" fill="none" stroke="url(#gold)" stroke-width="2.4"/>
  <circle cx="48" cy="48" r="39.5" fill="none" stroke="#e8c778" stroke-opacity=".28" stroke-width="1.1"/>
  <path d="M 44.46,49.57 L 44.48,49.47 L 44.53,49.35 L 44.59,49.24 L 44.67,49.13 L 44.77,49.03 L 44.87,48.93 L 44.99,48.84 L 45.12,48.76 L 45.27,48.68 L 45.42,48.62 L 45.58,48.57 L 45.76,48.53 L 45.94,48.51 L 46.12,48.49 L 46.32,48.49 L 46.52,48.51 L 46.72,48.54 L 46.93,48.59 L 47.13,48.65 L 47.34,48.74 L 47.55,48.83 L 47.75,48.95 L 47.95,49.08 L 48.15,49.23 L 48.34,49.40 L 48.52,49.58 L 48.69,49.78 L 48.86,49.99 L 49.01,50.22 L 49.15,50.46 L 49.27,50.72 L 49.38,50.99 L 49.48,51.28 L 49.55,51.57 L 49.61,51.87 L 49.65,52.19 L 49.68,52.51 L 49.68,52.83 L 49.65,53.17 L 49.61,53.50 L 49.55,53.84 L 49.46,54.18 L 49.35,54.52 L 49.22,54.85 L 49.06,55.18 L 48.88,55.51 L 48.68,55.83 L 48.45,56.14 L 48.21,56.44 L 47.94,56.73 L 47.64,57.00 L 47.33,57.26 L 47.00,57.51 L 46.65,57.73 L 46.28,57.94 L 45.90,58.12 L 45.50,58.29 L 45.08,58.43 L 44.65,58.55 L 44.21,58.64 L 43.76,58.70 L 43.30,58.74 L 42.83,58.75 L 42.36,58.73 L 41.88,58.69 L 41.41,58.61 L 40.93,58.50 L 40.46,58.36 L 39.99,58.20 L 39.52,58.00 L 39.07,57.77 L 38.62,57.51 L 38.18,57.23 L 37.76,56.91 L 37.36,56.57 L 36.97,56.19 L 36.60,55.80 L 36.25,55.37 L 35.93,54.92 L 35.63,54.45 L 35.36,53.96 L 35.11,53.44 L 34.89,52.91 L 34.71,52.36 L 34.56,51.80 L 34.43,51.22 L 34.35,50.63 L 34.30,50.03 L 34.28,49.43 L 34.30,48.81 L 34.36,48.20 L 34.45,47.58 L 34.58,46.97 L 34.75,46.36 L 34.96,45.76 L 35.21,45.16 L 35.49,44.58 L 35.81,44.01 L 36.16,43.46 L 36.56,42.92 L 36.98,42.40 L 37.44,41.91 L 37.93,41.44 L 38.45,41.00 L 39.01,40.58 L 39.59,40.20 L 40.19,39.85 L 40.82,39.53 L 41.47,39.25 L 42.15,39.01 L 42.84,38.80 L 43.55,38.64 L 44.27,38.52 L 45.00,38.44 L 45.74,38.40 L 46.49,38.41 L 47.24,38.46 L 47.99,38.56 L 48.74,38.70 L 49.48,38.88 L 50.22,39.12 L 50.94,39.40 L 51.65,39.72 L 52.35,40.08 L 53.03,40.49 L 53.69,40.94 L 54.32,41.44 L 54.93,41.97 L 55.50,42.54 L 56.05,43.15 L 56.56,43.79 L 57.04,44.47 L 57.48,45.18 L 57.88,45.91 L 58.23,46.68 L 58.54,47.47 L 58.81,48.27 L 59.03,49.10 L 59.20,49.95 L 59.32,50.81 L 59.39,51.68 L 59.41,52.55 L 59.38,53.44 L 59.30,54.32 L 59.16,55.20 L 58.97,56.08 L 58.73,56.95 L 58.43,57.80 L 58.08,58.65 L 57.68,59.47 L 57.23,60.28 L 56.74,61.06 L 56.19,61.82 L 55.60,62.54 L 54.96,63.23 L 54.28,63.89 L 53.55,64.51 L 52.79,65.09 L 51.99,65.62 L 51.16,66.11 L 50.30,66.55 L 49.40,66.94 L 48.48,67.28 L 47.54,67.57 L 46.58,67.80 L 45.60,67.98 L 44.60,68.10 L 43.60,68.16 L 42.59,68.16 L 41.58,68.10 L 40.56,67.98 L 39.56,67.80 L 38.55,67.56 L 37.57,67.26 L 36.59,66.90 L 35.63,66.48 L 34.70,66.01 L 33.79,65.48 L 32.91,64.89 L 32.06,64.25 L 31.25,63.56 L 30.48,62.81 L 29.74,62.02 L 29.06,61.19 L 28.42,60.31 L 27.83,59.39 L 27.29,58.43 L 26.81,57.44 L 26.38,56.42 L 26.02,55.37 L 25.71,54.30 L 25.47,53.20 L 25.30,52.09 L 25.18,50.97 L 25.14,49.83 L 25.16,48.70 L 25.25,47.55 L 25.40,46.42 L 25.62,45.28 L 25.91,44.16 L 26.27,43.06 L 26.69,41.97 L 27.18,40.90 L 27.74,39.86 L 28.35,38.85 L 29.03,37.88 L 29.76,36.94 L 30.55,36.04 L 31.40,35.19 L 32.30,34.39 L 33.25,33.64 L 34.24,32.94 L 35.28,32.30 L 36.36,31.72 L 37.47,31.20 L 38.62,30.75 L 39.79,30.36 L 41.00,30.04 L 42.22,29.79 L 42.80,24.05 L 42.80,24.05 L 40.27,18.82 L 38.42,19.25 L 36.60,19.79 L 34.83,20.43 L 33.10,21.17 L 31.43,22.01 L 29.81,22.95 L 28.27,23.97 L 26.78,25.08 L 25.38,26.26 L 24.05,27.53 L 22.80,28.86 L 21.64,30.26 L 20.57,31.71 L 19.59,33.23 L 18.70,34.79 L 17.92,36.39 L 17.23,38.03 L 16.64,39.70 L 16.15,41.39 L 15.76,43.10 L 15.48,44.83 L 15.30,46.56 L 15.22,48.29 L 15.25,50.01 L 15.37,51.72 L 15.60,53.42 L 15.92,55.09 L 16.34,56.73 L 16.85,58.33 L 17.46,59.90 L 18.15,61.42 L 18.92,62.89 L 19.78,64.30 L 20.72,65.66 L 21.73,66.95 L 22.80,68.17 L 23.95,69.32 L 25.15,70.40 L 26.41,71.40 L 27.72,72.32 L 29.07,73.16 L 30.46,73.91 L 31.89,74.58 L 33.35,75.15 L 34.84,75.64 L 36.34,76.04 L 37.85,76.34 L 39.37,76.56 L 40.90,76.68 L 42.42,76.71 L 43.93,76.66 L 45.43,76.51 L 46.91,76.28 L 48.37,75.96 L 49.80,75.56 L 51.19,75.08 L 52.55,74.52 L 53.86,73.89 L 55.13,73.18 L 56.34,72.40 L 57.50,71.55 L 58.61,70.65 L 59.65,69.68 L 60.63,68.66 L 61.54,67.60 L 62.38,66.48 L 63.15,65.32 L 63.85,64.13 L 64.47,62.91 L 65.01,61.65 L 65.48,60.38 L 65.86,59.09 L 66.17,57.78 L 66.40,56.46 L 66.55,55.15 L 66.62,53.83 L 66.62,52.52 L 66.53,51.22 L 66.37,49.93 L 66.14,48.67 L 65.83,47.43 L 65.46,46.21 L 65.01,45.03 L 64.50,43.88 L 63.92,42.78 L 63.28,41.71 L 62.59,40.69 L 61.84,39.72 L 61.04,38.81 L 60.19,37.95 L 59.30,37.14 L 58.37,36.39 L 57.40,35.71 L 56.40,35.09 L 55.38,34.53 L 54.32,34.04 L 53.25,33.61 L 52.16,33.25 L 51.06,32.96 L 49.95,32.74 L 48.84,32.58 L 47.73,32.49 L 46.63,32.47 L 45.53,32.51 L 44.44,32.62 L 43.37,32.79 L 42.32,33.02 L 41.30,33.32 L 40.30,33.67 L 39.33,34.07 L 38.39,34.54 L 37.49,35.05 L 36.63,35.61 L 35.81,36.21 L 35.03,36.86 L 34.30,37.55 L 33.62,38.28 L 32.98,39.04 L 32.40,39.82 L 31.87,40.64 L 31.40,41.48 L 30.98,42.34 L 30.61,43.21 L 30.30,44.10 L 30.05,45.00 L 29.85,45.91 L 29.71,46.81 L 29.62,47.72 L 29.59,48.62 L 29.61,49.51 L 29.69,50.39 L 29.82,51.26 L 29.99,52.11 L 30.22,52.95 L 30.50,53.75 L 30.81,54.54 L 31.18,55.29 L 31.58,56.02 L 32.02,56.71 L 32.50,57.37 L 33.02,57.99 L 33.56,58.58 L 34.14,59.12 L 34.73,59.63 L 35.36,60.09 L 36.00,60.51 L 36.66,60.88 L 37.33,61.21 L 38.02,61.50 L 38.72,61.74 L 39.42,61.93 L 40.12,62.08 L 40.82,62.19 L 41.52,62.25 L 42.22,62.27 L 42.91,62.25 L 43.58,62.18 L 44.25,62.08 L 44.90,61.93 L 45.53,61.75 L 46.14,61.53 L 46.73,61.28 L 47.29,61.00 L 47.83,60.68 L 48.34,60.34 L 48.83,59.97 L 49.28,59.57 L 49.70,59.16 L 50.09,58.72 L 50.45,58.27 L 50.77,57.80 L 51.06,57.32 L 51.32,56.83 L 51.54,56.33 L 51.72,55.82 L 51.87,55.31 L 51.99,54.80 L 52.07,54.30 L 52.12,53.79 L 52.13,53.29 L 52.12,52.80 L 52.07,52.32 L 51.99,51.85 L 51.88,51.40 L 51.75,50.96 L 51.59,50.53 L 51.41,50.13 L 51.20,49.74 L 50.97,49.38 L 50.72,49.04 L 50.46,48.72 L 50.18,48.43 L 49.88,48.16 L 49.58,47.92 L 49.26,47.70 L 48.93,47.51 L 48.60,47.35 L 48.27,47.21 L 47.93,47.10 L 47.59,47.01 L 47.26,46.96 L 46.93,46.92 L 46.60,46.92 L 46.28,46.93 L 45.97,46.97 L 45.67,47.04 L 45.39,47.12 L 45.11,47.23 L 44.85,47.35 L 44.61,47.50 L 44.39,47.66 L 44.18,47.83 L 44.00,48.02 L 43.83,48.23 L 43.69,48.44 L 43.57,48.67 L 43.47,48.91 L 43.40,49.16 L 43.36,49.45 Z" fill="url(#gold)"/>
  <circle cx="42.80" cy="24.05" r="5.6" fill="url(#gold)"/>
  <circle cx="44.5" cy="51.0" r="1.7" fill="url(#gold)"/>
</svg>