<svg xmlns="http://www.w3.org/2000/svg" viewBox="0 0 600 800" role="img" aria-label="جلد اختصاصی معرفی Ferrets, Rabbits, and Rodents">
  <defs><linearGradient id="bg" x1="0" y1="0" x2="1" y2="1"><stop stop-color="#5a2c25"/><stop offset="1" stop-color="#b45b36"/></linearGradient></defs>
  <rect width="600" height="800" rx="18" fill="url(#bg)"/><rect x="30" y="30" width="540" height="740" rx="13" fill="none" stroke="#f2d69b" stroke-opacity=".5"/>
  <text x="54" y="104" fill="#f2d69b" font-family="Arial,sans-serif" font-size="19" font-weight="700" letter-spacing="3">CLINICAL MEDICINE &amp; SURGERY</text>
  <text x="54" y="182" fill="#fff4df" font-family="Georgia,serif" font-size="51" font-weight="700">FERRETS,</text>
  <text x="54" y="242" fill="#fff4df" font-family="Georgia,serif" font-size="49" font-weight="700">RABBITS &amp;</text>
  <text x="54" y="302" fill="#fff4df" font-family="Georgia,serif" font-size="48" font-weight="700">RODENTS</text>
  <text x="54" y="345" fill="#f2d69b" font-family="Arial,sans-serif" font-size="21">FOURTH EDITION</text>
  <g transform="translate(62 420)" fill="none" stroke="#fff4df" stroke-width="8">
    <circle cx="78" cy="98" r="58"/><path d="M40 58Q18 8 48 5Q75 20 78 42M116 58Q138 8 108 5Q81 20 78 42"/>
    <circle cx="238" cy="98" r="58"/><path d="M204 53Q194-4 218-14Q241 20 238 42M272 53Q282-4 258-14Q235 20 238 42"/>
    <circle cx="398" cy="98" r="58"/><circle cx="357" cy="58" r="22"/><circle cx="439" cy="58" r="22"/>
  </g>
  <text x="54" y="674" fill="#fff4df" font-family="Arial,sans-serif" font-size="18">QUESENBERRY · MANS · ORCUTT</text>
  <text x="54" y="708" fill="#f2d69b" font-family="Arial,sans-serif" font-size="16">EDITOR: JAMES W. CARPENTER</text>
  <text x="546" y="748" text-anchor="end" fill="#fff4df" font-family="Arial,sans-serif" font-size="18" font-weight="700">ELSEVIER</text>
</svg>
