<svg xmlns="http://www.w3.org/2000/svg" viewBox="0 0 600 800" role="img" aria-label="جلد اختصاصی معرفی Mader's Reptile and Amphibian Medicine and Surgery">
  <defs>
    <linearGradient id="bg" x1="0" y1="0" x2="1" y2="1"><stop stop-color="#14271f"/><stop offset="1" stop-color="#31513a"/></linearGradient>
    <pattern id="scales" width="48" height="28" patternUnits="userSpaceOnUse"><path d="M0 0c0 18 24 28 24 28S48 18 48 0" fill="none" stroke="#d3b66c" stroke-opacity=".13" stroke-width="2"/></pattern>
  </defs>
  <rect width="600" height="800" rx="18" fill="url(#bg)"/><rect width="600" height="800" fill="url(#scales)"/>
  <rect x="44" y="42" width="512" height="8" rx="4" fill="#d3b66c"/>
  <text x="52" y="112" fill="#d3b66c" font-family="Arial,sans-serif" font-size="20" font-weight="700" letter-spacing="4">MADER'S</text>
  <text x="52" y="184" fill="#f5edd9" font-family="Georgia,serif" font-size="48" font-weight="700">REPTILE &amp;</text>
  <text x="52" y="241" fill="#f5edd9" font-family="Georgia,serif" font-size="45" font-weight="700">AMPHIBIAN</text>
  <text x="52" y="298" fill="#f5edd9" font-family="Georgia,serif" font-size="42" font-weight="700">MEDICINE</text>
  <text x="52" y="342" fill="#d3b66c" font-family="Arial,sans-serif" font-size="23">AND SURGERY · THIRD EDITION</text>
  <g transform="translate(72 414)" fill="none" stroke="#d3b66c" stroke-width="9" stroke-linecap="round">
    <path d="M4 177c58-104 116 35 174-70s132-64 166 2c30 58-44 111-99 84-42-21-26-81 18-83 31-2 47 31 29 52"/>
    <circle cx="7" cy="177" r="7" fill="#d3b66c" stroke="none"/>
  </g>
  <line x1="52" y1="665" x2="548" y2="665" stroke="#d3b66c" stroke-opacity=".55"/>
  <text x="52" y="713" fill="#f5edd9" font-family="Arial,sans-serif" font-size="21">STEPHEN J. DIVERS</text>
  <text x="52" y="745" fill="#f5edd9" font-family="Arial,sans-serif" font-size="21">SCOTT J. STAHL</text>
  <text x="548" y="744" text-anchor="end" fill="#d3b66c" font-family="Arial,sans-serif" font-size="18" font-weight="700">ELSEVIER</text>
</svg>
